<svg id="Logos_FAIRWINDS" data-name="Logos | FAIRWINDS" xmlns="http://www.w3.org/2000/svg" width="267.539" height="46.291" viewBox="0 0 267.539 46.291">
  <path id="Path_233" data-name="Path 233" d="M2062.053,844.426l.063.168h.544l.875-5.422h-.441l-.106.023a4.939,4.939,0,0,1-1.943.247h-5.287l1.311-8.124a28.664,28.664,0,0,1,4.576-.29c2.37,0,3.946.278,4.991,1.7l.078.106h.5l.949-5.894h-.452l-.119.029a3.536,3.536,0,0,1-1.684.22c-.138,0-.277-.005-.417-.005h-15.131l-.077.56.189.075c1.833.722,1.355,3.482,1.006,5.5-.036.213-.073.419-.1.614l-2.814,17.451-.089.589c-.3,2.043-.718,4.841-2.853,5.551l-.147.049-.1.592h9.341l.077-.559-.187-.076c-1.739-.707-1.275-3.259-.9-5.309.047-.265.094-.518.132-.755l1.309-8.153,3.807,0C2060.3,843.306,2061.664,843.393,2062.053,844.426Z" transform="translate(-2008.351 -813.439)" fill="#002f6f"/>
  <path id="Path_234" data-name="Path 234" d="M2102.4,852.015l-6.073-24.622h-7.777l-.1.57.214.07a1.359,1.359,0,0,1,.934.724c.294.744-.364,1.932-.945,2.979l-11.021,19.539-.359.659c-1.284,2.366-2.5,4.6-5.1,5.805l-.129.06-.075.57h9.077l.1-.558-.2-.078a1.818,1.818,0,0,1-1.163-.946c-.275-.754.323-1.961,1.135-3.462l3.4-6.386h11.371l1.548,6.883c.631,2.75.7,3.037-1.4,3.912l-.131.054-.1.579h10.075l.093-.532-.161-.09C2103.488,856.565,2102.961,854.355,2102.4,852.015ZM2086.374,843l5.944-10.692L2094.78,843Z" transform="translate(-2020.509 -813.647)" fill="#002f6f"/>
  <path id="Path_235" data-name="Path 235" d="M2150.564,827.979l.106-.587h-9.379l-.1.557.2.078c1.8.71,1.345,3.313.977,5.405-.043.246-.084.483-.121.706l-2.811,17.45c-.032.2-.064.411-.1.631-.3,2.028-.719,4.806-2.8,5.51l-.146.049-.1.591h9.381l.079-.559-.188-.076c-1.78-.723-1.312-3.442-.97-5.427.038-.222.075-.436.108-.637l2.813-17.45c.031-.2.063-.406.1-.624.3-2.034.722-4.821,2.814-5.565Z" transform="translate(-2049.897 -813.647)" fill="#002f6f"/>
  <path id="Path_236" data-name="Path 236" d="M2182.25,851.489l-5.152-8.066c3.806-.981,7.884-4.075,8.56-8.283a6.072,6.072,0,0,0-1.276-5.084c-1.5-1.744-4.063-2.665-7.424-2.665h-11.313l-.076.56.189.075c1.8.71,1.347,3.313.982,5.4-.044.245-.084.483-.12.706l-2.815,17.451c-.033.207-.064.428-.1.658-.29,2.017-.686,4.78-2.8,5.48l-.146.049-.107.592h9.432l.084-.564-.2-.073c-1.83-.68-1.36-3.424-1.017-5.427.039-.221.075-.433.106-.634l3.317-20.558a27.176,27.176,0,0,1,3.008-.334,5.049,5.049,0,0,1,4.1,1.526,3.967,3.967,0,0,1,.817,3.318c-.729,4.538-5.893,5.958-8.907,6.4l-.353.052,3.4,6.867,4.557,7c1.141,1.751,2.611,2.433,5.245,2.433h5.1l-.67-.47A25.579,25.579,0,0,1,2182.25,851.489Z" transform="translate(-2061.031 -813.647)" fill="#002f6f"/>
  <path id="Path_237" data-name="Path 237" d="M2246.062,827.392l-.125.559.214.078a2.39,2.39,0,0,1,1.522,1.3c.581,1.431-.489,3.624-1.348,5.386L2238.4,851.5l-3.109-19.217c-.311-1.969-.413-3.414.043-4.536l.143-.356h-7.168l-.093.531.162.089c2.147,1.182.793,4.036-.517,6.8l-7.924,16.825-3.332-20.7a7.449,7.449,0,0,1-.034-3.2l.116-.342H2209.3l-.081.506.123.093c1.748,1.331,2.117,3.739,2.473,6.067.047.3.093.606.141.9l2.751,17.075c.668,4.187,1.183,4.591,3.656,6.536.41.322.876.689,1.409,1.125l.259.211,10.818-22.922,2.421,15.1c.707,4.364,1.139,4.686,3.948,6.787.33.247.695.519,1.1.827l.257.2,15.272-32.505Z" transform="translate(-2083.222 -813.647)" fill="#002f6f"/>
  <path id="Path_238" data-name="Path 238" d="M2298.078,828.03l.139-.05.114-.588h-9.369l-.114.555.2.079c1.806.71,1.347,3.312.979,5.4-.044.247-.085.484-.121.708l-2.814,17.45c-.031.193-.063.4-.094.609-.3,2.036-.72,4.825-2.806,5.531l-.149.05-.091.59h9.371l.1-.556-.194-.079c-1.8-.728-1.32-3.469-.969-5.471l2.912-18.044c.032-.192.062-.4.094-.607C2295.567,831.57,2295.981,828.776,2298.078,828.03Z" transform="translate(-2117.368 -813.647)" fill="#002f6f"/>
  <path id="Path_239" data-name="Path 239" d="M2342.2,828.015l.112-.06.1-.563h-8.721l-.1.52.152.094c2.059,1.269,1.792,2.927,1.389,5.438l-2.74,17.007-13.224-20.8-.517-.949a1.96,1.96,0,0,1-.456-1.025l.03-.285h-7.307l-.094.519.148.093c2.053,1.291,1.779,2.99,1.362,5.579l-2.981,18.491c-.417,2.59-.695,4.3-3.271,5.67l-.109.058-.111.566h8.8l.058-.526-.135-.087c-2.059-1.322-1.786-2.99-1.373-5.515l2.8-17.344,12.358,19.556c1.532,2.491,2.783,4.21,6.084,5.38l.295.1,4.23-26.278C2339.4,831.058,2339.677,829.338,2342.2,828.015Z" transform="translate(-2127.376 -813.647)" fill="#002f6f"/>
  <path id="Path_240" data-name="Path 240" d="M2397.165,832.057c-2.618-3.052-6.994-4.665-12.656-4.665h-11.632l-.093.575.216.066c1.813.556,1.355,3.14.988,5.216-.043.244-.084.478-.12.7l-2.806,17.453c-.046.277-.088.548-.128.815-.358,2.336-.641,4.181-2.858,5.535l-.105.065-.075.551h11.474c10.411,0,18.726-6.467,20.216-15.726C2400.275,838.368,2399.437,834.708,2397.165,832.057Zm-3.486,11.057c-1.361,8.42-8.8,11.408-14.75,11.408a15.625,15.625,0,0,1-3.054-.275l3.64-22.539a19,19,0,0,1,4.039-.47c3.886,0,6.731,1.018,8.453,3.025S2394.3,839.254,2393.679,843.114Z" transform="translate(-2155.721 -813.647)" fill="#002f6f"/>
  <path id="Path_241" data-name="Path 241" d="M2441.307,839.751c-3.3-1.617-6.419-3.146-5.979-5.889.482-2.95,3.771-4,6.44-4a8.8,8.8,0,0,1,6.634,2.815l.366.447.969-6.012-.21-.069a22.253,22.253,0,0,0-6.85-1.033c-5.493,0-12.259,2.167-13.247,8.273-.881,5.472,3.614,7.626,7.579,9.527,3.439,1.648,6.408,3.072,5.9,6.216-.485,3-4.484,4.594-7.184,4.594a13.577,13.577,0,0,1-9.4-3.765l-.494-.49.486,6.638.153.059a22.594,22.594,0,0,0,8.211,1.411c7,0,13.4-4.4,14.277-9.8C2449.74,843.885,2445.26,841.689,2441.307,839.751Z" transform="translate(-2182.197 -813.012)" fill="#002f6f"/>
  <path id="Path_242" data-name="Path 242" d="M1998.339,847.422c10.394-5.69,13.734-.89,13.734-.89,12.284-17.433.711-35.623.711-35.623C2014.741,827.49,1997.995,847.23,1998.339,847.422Z" transform="translate(-1986.863 -806.063)" fill="#002f6f"/>
  <path id="Path_243" data-name="Path 243" d="M2002.04,801.935c-.355-.314-20.143,38.875-22.774,42.045,1.208-.927,8.947-6.768,13.5-7.833C1992.767,836.146,1997.738,814.766,2002.04,801.935Z" transform="translate(-1978.15 -801.933)" fill="#002f6f"/>
  <path id="Path_244" data-name="Path 244" d="M1977.212,882.365l1.658.076,13.766.487.056-.041a15.287,15.287,0,0,0,4.386-5.073l.224-.455-.478.173C1989.826,880.054,1977.212,882.365,1977.212,882.365Z" transform="translate(-1977.212 -836.636)" fill="#002f6f"/>
</svg>
